<svg width="180" height="51" viewBox="0 0 180 51" fill="none" xmlns="http://www.w3.org/2000/svg">
<g id="Group 38">
<g id="&#235;&#176;&#180;&#235;&#147;&#156;&#237;&#149;&#160;&#235;&#158;&#152;?">
<path d="M30.4461 25.9078C29.8586 25.9078 29.5649 25.6141 29.5649 25.0266V17.0516H27.1856V24.8063C27.1856 25.3938 26.8919 25.6875 26.3044 25.6875H21.2374C20.6499 25.6875 20.3562 25.3938 20.3562 24.8063V3.04021C20.3562 2.42335 20.6499 2.11492 21.2374 2.11492H26.3044C26.8919 2.11492 27.1856 2.42335 27.1856 3.04021V10.4424H29.5649V2.90802C29.5649 2.29117 29.8586 1.98274 30.4461 1.98274H35.5572C36.1447 1.98274 36.4384 2.29117 36.4384 2.90802V25.0266C36.4384 25.6141 36.1447 25.9078 35.5572 25.9078H30.4461ZM2.95208 22.5151C2.36461 22.5151 2.07087 22.2214 2.07087 21.6339V3.26051C2.07087 2.67303 2.36461 2.37929 2.95208 2.37929H7.62255C8.21002 2.37929 8.50376 2.67303 8.50376 3.26051V7.04975H11.6762V3.26051C11.6762 2.67303 11.9846 2.37929 12.6014 2.37929H17.1838C17.8006 2.37929 18.1091 2.67303 18.1091 3.26051V21.6339C18.1091 22.2214 17.8006 22.5151 17.1838 22.5151H2.95208ZM35.9978 30.4461C36.5853 30.4461 36.879 30.7399 36.879 31.3273V36.6147C36.879 37.2021 36.5853 37.4959 35.9978 37.4959H4.22985C3.64237 37.4959 3.34863 37.2021 3.34863 36.6147V26.6128C3.34863 26.0253 3.64237 25.7316 4.22985 25.7316H10.8831C11.4705 25.7316 11.7643 26.0253 11.7643 26.6128V30.4461H35.9978ZM11.6762 16.7432V12.7777H8.50376V16.7432H11.6762Z" fill="black"/>
<path d="M41.8056 3.78924C41.8056 3.20176 42.114 2.90802 42.7309 2.90802H73.4413C74.0582 2.90802 74.3666 3.20176 74.3666 3.78924V8.63595C74.3666 9.22343 74.0582 9.51717 73.4413 9.51717H42.7309C42.114 9.51717 41.8056 9.22343 41.8056 8.63595V3.78924ZM50.794 18.2412H73.6176C74.2344 18.2412 74.5429 18.535 74.5429 19.1225V23.9692C74.5429 24.5566 74.2344 24.8504 73.6176 24.8504H43.1715C42.8777 24.8504 42.6427 24.7769 42.4665 24.6301C42.2903 24.4832 42.2168 24.2482 42.2462 23.9251L42.9071 11.6762C42.9659 11.118 43.2743 10.839 43.8324 10.839H50.1772C50.8234 10.839 51.1318 11.1474 51.1024 11.7643L50.794 18.2412ZM41.8937 37.0553C41.2769 37.0553 40.9684 36.7468 40.9684 36.13V31.1952C40.9684 30.6077 41.2769 30.3139 41.8937 30.3139H74.8072C75.4241 30.3139 75.7325 30.6077 75.7325 31.1952V36.13C75.7325 36.7468 75.4241 37.0553 74.8072 37.0553H41.8937Z" fill="black"/>
<path d="M82.025 37.7162C81.4375 37.7162 81.1437 37.4224 81.1437 36.835V29.2124C81.1437 28.5956 81.4375 28.2871 82.025 28.2871H104.496V26.4806H82.025C81.4375 26.4806 81.1437 26.1869 81.1437 25.5994V23.2642C81.1437 22.6767 81.4375 22.383 82.025 22.383H112.295C112.882 22.383 113.176 22.6767 113.176 23.2642V30.7986C113.176 31.3861 112.882 31.6798 112.295 31.6798H89.8678V33.5744H112.691C113.279 33.5744 113.573 33.8682 113.573 34.4557V36.835C113.573 37.4224 113.279 37.7162 112.691 37.7162H82.025ZM101.544 15.2892C101.544 16.2291 101.28 17.0369 100.751 17.7125C100.252 18.3881 99.5318 18.9462 98.5919 19.3868C97.6813 19.7981 96.5651 20.1065 95.2433 20.3121C93.9508 20.4883 92.5115 20.5765 90.9253 20.5765C89.3391 20.5765 87.8998 20.4883 86.6073 20.3121C85.3149 20.1065 84.1986 19.7981 83.2587 19.3868C82.3187 18.9462 81.5844 18.3881 81.0556 17.7125C80.5563 17.0369 80.3066 16.2291 80.3066 15.2892V14.8045C80.3066 13.8645 80.5563 13.0567 81.0556 12.3811C81.5844 11.7055 82.304 11.1621 83.2146 10.7509C84.1546 10.3103 85.2708 10.0018 86.5632 9.82559C87.8851 9.61998 89.3391 9.51717 90.9253 9.51717C92.5115 9.51717 93.9508 9.61998 95.2433 9.82559C96.5357 10.0018 97.6519 10.3103 98.5919 10.7509C99.5318 11.1621 100.252 11.7055 100.751 12.3811C101.28 13.0567 101.544 13.8645 101.544 14.8045V15.2892ZM105.95 20.1359C105.333 20.1359 105.025 19.8421 105.025 19.2546V2.90802C105.025 2.29117 105.333 1.98274 105.95 1.98274H112.251C112.868 1.98274 113.176 2.29117 113.176 2.90802V7.49036H115.247C115.834 7.49036 116.128 7.79879 116.128 8.41564V13.6148C116.128 14.2023 115.834 14.4961 115.247 14.4961H113.176V19.2546C113.176 19.8421 112.868 20.1359 112.251 20.1359H105.95ZM79.4254 4.22985C79.4254 3.64237 79.7338 3.34863 80.3507 3.34863H86.9598V0.925278C86.9598 0.308426 87.2682 0 87.8851 0H93.9655C94.5823 0 94.8908 0.308426 94.8908 0.925278V3.34863H101.236C101.852 3.34863 102.161 3.64237 102.161 4.22985V7.49036C102.161 8.07784 101.852 8.37158 101.236 8.37158H80.3507C79.7338 8.37158 79.4254 8.07784 79.4254 7.49036V4.22985ZM93.7892 15.0248C93.7892 14.4667 93.5689 13.982 93.1283 13.5708C92.7171 13.1595 91.9827 12.9539 90.9253 12.9539C89.8384 12.9539 89.0894 13.1595 88.6782 13.5708C88.2669 13.982 88.0613 14.4814 88.0613 15.0688C88.0613 15.6563 88.2669 16.1557 88.6782 16.5669C89.1188 16.9488 89.8678 17.1397 90.9253 17.1397C92.0121 17.1397 92.7612 16.9341 93.1724 16.5229C93.5836 16.0822 93.7892 15.5829 93.7892 15.0248Z" fill="black"/>
<path d="M128.237 30.5342C129.793 30.5342 131.365 30.4021 132.951 30.1377C134.537 29.844 135.903 29.4033 137.049 28.8159V3.17239C137.049 2.55553 137.343 2.24711 137.93 2.24711H142.997C143.585 2.24711 143.878 2.55553 143.878 3.17239V15.8179H146.258V2.90802C146.258 2.29117 146.551 1.98274 147.139 1.98274H152.25C152.837 1.98274 153.131 2.29117 153.131 2.90802V37.0553C153.131 37.6427 152.837 37.9365 152.25 37.9365H147.139C146.551 37.9365 146.258 37.6427 146.258 37.0553V23.3082H143.878V36.6147C143.878 37.2021 143.585 37.4959 142.997 37.4959H137.93C137.343 37.4959 137.049 37.2021 137.049 36.6147V35.0285C136.109 35.5866 134.875 36.0272 133.348 36.3503C131.82 36.6734 130.117 36.835 128.237 36.835H119.645C119.057 36.835 118.764 36.5265 118.764 35.9097V17.4481C118.764 16.8607 119.072 16.5669 119.689 16.5669H127.399V9.16468H119.601C118.984 9.16468 118.675 8.87094 118.675 8.28346V3.74518C118.675 3.1577 118.984 2.86396 119.601 2.86396H133.744C134.361 2.86396 134.67 3.1577 134.67 3.74518V21.7661C134.67 22.3536 134.361 22.6473 133.744 22.6473H125.99V30.5342H128.237Z" fill="black"/>
<path d="M165.46 37.9365C164.843 37.9365 164.535 37.6427 164.535 37.0553V31.4155C164.535 30.7692 164.843 30.4461 165.46 30.4461H171.761C172.377 30.4461 172.686 30.7692 172.686 31.4155V37.0553C172.686 37.6427 172.377 37.9365 171.761 37.9365H165.46ZM157.617 13.4827C157.617 11.6027 157.925 9.94309 158.542 8.50376C159.189 7.06444 160.026 5.87479 161.054 4.93483C162.082 3.96549 163.257 3.24582 164.579 2.77584C165.901 2.27648 167.252 2.0268 168.632 2.0268C170.307 2.0268 171.834 2.2618 173.215 2.73178C174.595 3.20176 175.785 3.86268 176.784 4.71452C177.812 5.56637 178.605 6.59445 179.163 7.79879C179.721 9.00312 180 10.3396 180 11.8083C180 13.0714 179.809 14.1436 179.427 15.0248C179.075 15.906 178.619 16.6844 178.061 17.36C177.533 18.0062 176.945 18.5937 176.299 19.1225C175.653 19.6218 175.05 20.1212 174.492 20.6205C173.964 21.1199 173.508 21.6633 173.126 22.2508C172.774 22.8383 172.598 23.5285 172.598 24.3216V26.8772C172.539 27.4647 172.231 27.7584 171.672 27.7584H165.592C164.975 27.7584 164.667 27.4647 164.667 26.8772V23.3964C164.667 22.427 164.828 21.5899 165.151 20.8849C165.504 20.1505 165.93 19.4896 166.429 18.9021C166.929 18.3147 167.457 17.7712 168.015 17.2719C168.603 16.7432 169.146 16.2291 169.646 15.7298C170.145 15.201 170.556 14.6429 170.879 14.0554C171.232 13.468 171.408 12.7924 171.408 12.0286C171.408 11.1474 171.144 10.5159 170.615 10.134C170.116 9.72278 169.484 9.51717 168.72 9.51717C167.957 9.51717 167.266 9.84028 166.65 10.4865C166.062 11.1327 165.768 12.1314 165.768 13.4827C165.768 14.0995 165.46 14.4079 164.843 14.4079H158.542C157.925 14.4079 157.617 14.0995 157.617 13.4827Z" fill="black"/>
</g>
<path id="Rectangle 1" d="M0 44.3987H174.612V50.9263H0V44.3987Z" fill="black"/>
</g>
</svg>
